HIERARCHY
ROOT Hips
{
 OFFSET 0.000000 0.000000 0.000000
 CHANNELS 6 Xposition Yposition Zposition Yrotation Xrotation Zrotation
 JOINT Chest
 {
  OFFSET 0.000000 9.585900 0.002600
  CHANNELS 3 Yrotation Xrotation Zrotation
  JOINT Chest2
  {
   OFFSET 0.000000 9.601200 -0.005300
   CHANNELS 3 Yrotation Xrotation Zrotation
   JOINT Chest3
   {
    OFFSET 0.000000 9.561800 0.000000
    CHANNELS 3 Yrotation Xrotation Zrotation
    JOINT Chest4
    {
     OFFSET 0.000000 9.552100 0.000000
     CHANNELS 3 Yrotation Xrotation Zrotation
     JOINT Neck
     {
      OFFSET 0.000000 14.453000 0.000000
      CHANNELS 3 Yrotation Xrotation Zrotation
      JOINT Head
      {
       OFFSET 0.000000 8.936500 -0.011300
       CHANNELS 3 Yrotation Xrotation Zrotation
       End Site
       {
        OFFSET 0.000000 17.073600 -0.006000
       }
      }
     }
     JOINT RightCollar
     {
      OFFSET -2.921100 9.558500 0.000000
      CHANNELS 3 Yrotation Xrotation Zrotation
      JOINT RightShoulder
      {
       OFFSET -13.519700 0.000000 0.000000
       CHANNELS 3 Yrotation Xrotation Zrotation
       JOINT RightElbow
       {
        OFFSET 0.000000 -29.696600 0.000000
        CHANNELS 3 Yrotation Xrotation Zrotation
        JOINT RightWrist
        {
         OFFSET 0.000000 -24.004700 0.000000
         CHANNELS 3 Yrotation Xrotation Zrotation
         End Site
         {
          OFFSET 0.000000 -17.728500 0.000000
         }
        }
       }
      }
     }
     JOINT LeftCollar
     {
      OFFSET 2.921100 9.558500 0.000000
      CHANNELS 3 Yrotation Xrotation Zrotation
      JOINT LeftShoulder
      {
       OFFSET 13.519700 0.000000 0.000000
       CHANNELS 3 Yrotation Xrotation Zrotation
       JOINT LeftElbow
       {
        OFFSET 0.000000 -29.696600 0.000000
        CHANNELS 3 Yrotation Xrotation Zrotation
        JOINT LeftWrist
        {
         OFFSET 0.000000 -24.004700 0.000000
         CHANNELS 3 Yrotation Xrotation Zrotation
         End Site
         {
          OFFSET 0.000000 -17.728500 0.000000
         }
        }
       }
      }
     }
    }
   }
  }
 }
 JOINT RightHip
 {
  OFFSET -7.771700 -0.012900 -0.001300
  CHANNELS 3 Yrotation Xrotation Zrotation
  JOINT RightKnee
  {
   OFFSET 0.000000 -40.869800 0.001200
   CHANNELS 3 Yrotation Xrotation Zrotation
   JOINT RightAnkle
   {
    OFFSET 0.000000 -39.717900 0.002100
    CHANNELS 3 Yrotation Xrotation Zrotation
    JOINT RightToe
    {
     OFFSET 0.000000 -4.965400 11.033500
     CHANNELS 3 Yrotation Xrotation Zrotation
     End Site
     {
      OFFSET 0.000000 -1.423100 5.872300
     }
    }
   }
  }
 }
 JOINT LeftHip
 {
  OFFSET 7.771700 -0.012900 -0.001300
  CHANNELS 3 Yrotation Xrotation Zrotation
  JOINT LeftKnee
  {
   OFFSET 0.000000 -40.869800 0.001200
   CHANNELS 3 Yrotation Xrotation Zrotation
   JOINT LeftAnkle
   {
    OFFSET 0.000000 -39.717900 0.002100
    CHANNELS 3 Yrotation Xrotation Zrotation
    JOINT LeftToe
    {
     OFFSET 0.000000 -4.965400 11.033500
     CHANNELS 3 Yrotation Xrotation Zrotation
     End Site
     {
      OFFSET 0.000000 -1.423100 5.872300
     }
    }
   }
  }
 }
}
MOTION
Frames: 15
Frame Time: 0.008333
-49.751618 50.561887 0.571995 162.796417 -6.218009 -0.068610 4.126626 6.557367 0.635979 0.174834 0.305564 -0.019950 0.306087 0.534752 -0.034409 3.595323 6.302901 -0.224378 1.745686 18.250949 0.419079 3.068403 -1.911742 0.212367 2.093285 5.537218 -0.322854 -5.884310 -13.111507 -8.251119 -47.384571 -70.136283 69.327406 -4.591993 -2.311780 -33.228725 -6.178749 2.479201 1.135686 20.375781 -6.445449 1.398119 61.796892 -80.556909 -83.143137 2.044714 7.703412 13.529453 -4.446729 -73.964184 -1.236110 -120.166554 80.823703 -117.753870 0.188558 -16.179893 -1.202568 -0.363603 0.968715 -0.168111 -9.338737 -77.756227 27.148771 115.561972 78.372793 112.754240 -15.619190 -22.599208 -0.643483 -0.371673 -1.124319 -0.159467
-49.752822 50.560927 0.570973 162.793537 -6.218833 -0.062692 4.128199 6.549229 0.635105 0.174823 0.305217 -0.020012 0.305955 0.534068 -0.034424 3.596127 6.298479 -0.224486 1.744493 18.250437 0.421416 3.062824 -1.913708 0.216320 2.088957 5.534893 -0.330078 -5.888426 -13.115424 -8.260103 -47.397824 -70.141123 69.345843 -4.590010 -2.309964 -33.228761 -6.189800 2.466766 1.148083 20.379003 -6.445782 1.398689 61.782759 -80.559307 -83.135101 2.039296 7.705513 13.530277 -4.426111 -73.968192 -1.253783 -120.190842 80.821712 -117.778261 0.182122 -16.173710 -1.201465 -0.356326 0.963828 -0.167085 -9.310095 -77.755546 27.125370 115.597605 78.384740 112.785214 -15.613277 -22.599546 -0.636956 -0.380323 -1.127256 -0.162359
-49.752136 50.559956 0.569262 162.786519 -6.228045 -0.065472 4.133513 6.550856 0.641659 0.174058 0.296565 -0.019284 0.306718 0.541479 -0.034956 3.596721 6.286706 -0.223821 1.740302 18.244600 0.425481 3.059203 -1.904577 0.218785 2.089844 5.539187 -0.334432 -5.894106 -13.119556 -8.267570 -47.402214 -70.148495 69.354616 -4.594725 -2.304935 -33.225526 -6.198006 2.465865 1.155960 20.370137 -6.478792 1.404924 61.656352 -80.547148 -83.003460 2.008755 7.684839 13.503220 -4.428901 -73.959770 -1.243267 -120.194019 80.819116 -117.780771 0.184810 -16.172965 -1.201840 -0.355052 0.963645 -0.166332 -9.308695 -77.744798 27.130886 115.626752 78.387882 112.808999 -15.577192 -22.605806 -0.637922 -0.368231 -1.126326 -0.163284
-49.753395 50.558729 0.568031 162.785385 -6.231871 -0.057678 4.132683 6.548021 0.634594 0.175831 0.294469 -0.018462 0.304371 0.542543 -0.035735 3.596692 6.288728 -0.224042 1.740614 18.247255 0.426422 3.053170 -1.916926 0.226135 2.090089 5.507436 -0.338712 -5.895497 -13.102437 -8.275768 -47.403563 -70.155357 69.361771 -4.611413 -2.291018 -33.228129 -6.201922 2.455663 1.164861 20.365757 -6.485774 1.409113 61.669238 -80.550183 -83.020233 2.014465 7.696815 13.508641 -4.408837 -73.960169 -1.263154 -120.212229 80.816578 -117.802427 0.184205 -16.172222 -1.201441 -0.353556 0.962711 -0.165024 -9.261692 -77.741832 27.086817 115.629337 78.385329 112.807731 -15.578897 -22.602937 -0.629661 -0.373998 -1.130722 -0.167322
-49.753948 50.557321 0.567526 162.785210 -6.233055 -0.053745 4.133026 6.540056 0.632131 0.176900 0.294061 -0.018255 0.302611 0.541893 -0.036117 3.596888 6.270592 -0.221747 1.735401 18.261526 0.425960 3.052234 -1.917095 0.230468 2.086167 5.515968 -0.338518 -5.890839 -13.098705 -8.287900 -47.398246 -70.152869 69.360168 -4.601513 -2.301695 -33.225932 -6.205132 2.475529 1.163433 20.363039 -6.489229 1.411815 61.670352 -80.551100 -83.022578 2.010835 7.695833 13.506082 -4.395459 -73.963166 -1.277190 -120.236613 80.815585 -117.827623 0.187264 -16.170086 -1.203325 -0.357157 0.960777 -0.163257 -9.232571 -77.741828 27.060195 115.615889 78.382182 112.795959 -15.588302 -22.599039 -0.628156 -0.366001 -1.131213 -0.166074
-49.753773 50.555727 0.568143 162.793233 -6.228398 -0.054783 4.128418 6.525831 0.634589 0.174290 0.294812 -0.019498 0.304998 0.540031 -0.034472 3.597017 6.266859 -0.221353 1.732961 18.261608 0.429638 3.047463 -1.918139 0.230524 2.077259 5.510674 -0.336024 -5.883731 -13.084688 -8.297033 -47.407780 -70.161277 69.374145 -4.570914 -2.342573 -33.225405 -6.211378 2.480484 1.163034 20.360207 -6.492949 1.416152 61.661930 -80.551974 -83.016022 1.989153 7.662309 13.484328 -4.405173 -73.971081 -1.271974 -120.253103 80.813089 -117.845590 0.183543 -16.166491 -1.200842 -0.356225 0.957224 -0.163549 -9.240669 -77.746963 27.061606 115.592403 78.379898 112.771268 -15.582199 -22.593626 -0.631042 -0.395940 -1.129362 -0.169330
-49.755871 50.554037 0.568830 162.800144 -6.217353 -0.040580 4.119666 6.506542 0.618692 0.174475 0.297533 -0.017861 0.304820 0.536432 -0.035755 3.600953 6.266554 -0.220513 1.729383 18.257125 0.432483 3.046182 -1.911383 0.230165 2.070049 5.511379 -0.333693 -5.883509 -13.096169 -8.310093 -47.423468 -70.162243 69.394297 -4.574948 -2.334222 -33.227131 -6.220985 2.474313 1.169492 20.355977 -6.503526 1.424575 61.627754 -80.550356 -82.987041 2.002536 7.667502 13.492954 -4.365270 -73.985750 -1.319918 -120.281301 80.814128 -117.872407 0.172461 -16.174045 -1.204011 -0.347388 0.963740 -0.159844 -9.162893 -77.760358 26.985024 115.562770 78.384749 112.741088 -15.611725 -22.583417 -0.630450 -0.385590 -1.129774 -0.160427
-49.755808 50.552528 0.569388 162.802687 -6.207551 -0.035949 4.116330 6.491633 0.614478 0.174846 0.299100 -0.017280 0.305018 0.533597 -0.036409 3.602035 6.269959 -0.221469 1.736887 18.223932 0.433268 3.037417 -1.883867 0.234897 2.065314 5.504659 -0.332603 -5.896210 -13.120932 -8.324879 -47.466939 -70.167248 69.442481 -4.588541 -2.302225 -33.222296 -6.229884 2.462738 1.173537 20.343484 -6.511523 1.438727 61.736667 -80.556092 -83.102281 2.022467 7.689456 13.514490 -4.358898 -73.999947 -1.324642 -120.301319 80.809658 -117.891759 0.158123 -16.174603 -1.207484 -0.335042 0.962667 -0.155016 -9.127900 -77.767858 26.954724 115.519796 78.378772 112.693441 -15.615355 -22.588115 -0.631757 -0.384968 -1.117046 -0.158390
-49.755831 50.551221 0.570656 162.806579 -6.188963 -0.030777 4.114322 6.471110 0.613132 0.172274 0.300268 -0.021755 0.308153 0.526938 -0.032297 3.606176 6.258331 -0.224090 1.734830 18.221126 0.431793 3.029859 -1.884768 0.239496 2.054772 5.504528 -0.326721 -5.894180 -13.107102 -8.335301 -47.486702 -70.170366 69.459001 -4.576942 -2.311274 -33.211092 -6.239895 2.469115 1.173691 20.318867 -6.543490 1.457010 61.706486 -80.539376 -83.061048 2.025049 7.698079 13.515017 -4.369173 -74.023387 -1.312439 -120.309571 80.805288 -117.904064 0.138554 -16.171305 -1.212559 -0.318375 0.959590 -0.146686 -9.093439 -77.788777 26.929560 115.497316 78.369915 112.658881 -15.615210 -22.583265 -0.621471 -0.396812 -1.112548 -0.162109
-49.756033 50.550424 0.571703 162.805769 -6.166080 -0.023143 4.114899 6.449325 0.604658 0.174714 0.300391 -0.019951 0.309202 0.528300 -0.034135 3.628017 6.221050 -0.229695 1.716999 18.238416 0.439047 3.018518 -1.936826 0.244960 2.023524 5.521033 -0.310082 -5.902681 -13.113177 -8.345735 -47.460498 -70.160512 69.441588 -4.545955 -2.343159 -33.203534 -6.271905 2.493282 1.184161 20.318747 -6.547486 1.459289 61.758471 -80.543646 -83.117487 2.007711 7.677810 13.510855 -4.350875 -74.048265 -1.328655 -120.312493 80.805075 -117.910147 0.142304 -16.172341 -1.213174 -0.324398 0.963908 -0.145842 -9.039660 -77.815015 26.888258 115.497550 78.372874 112.657197 -15.614905 -22.579287 -0.617245 -0.400890 -1.110036 -0.162915
-49.755679 50.550564 0.570657 162.811940 -6.150988 -0.016157 4.113288 6.440718 0.596967 0.174927 0.298988 -0.020133 0.309738 0.531129 -0.034376 3.639329 6.201484 -0.233591 1.703406 18.244396 0.444146 3.014424 -1.977446 0.245045 1.995446 5.511435 -0.297132 -5.904690 -13.113324 -8.353326 -47.478887 -70.162316 69.463759 -4.542845 -2.327285 -33.199161 -6.305253 2.499292 1.202508 20.334138 -6.541627 1.448868 61.853278 -80.555596 -83.223620 2.003276 7.678040 13.514257 -4.350081 -74.065977 -1.336733 -120.349716 80.798799 -117.946354 0.135426 -16.177955 -1.219739 -0.314956 0.963539 -0.141885 -8.981219 -77.832476 26.837339 115.507515 78.379282 112.663786 -15.616087 -22.580101 -0.606166 -0.401127 -1.106325 -0.167254
-49.756216 50.551618 0.568892 162.805505 -6.134014 -0.002675 4.119472 6.434667 0.583519 0.175154 0.297370 -0.020192 0.316570 0.536528 -0.034934 3.654454 6.186462 -0.237567 1.690227 18.219572 0.447299 3.003290 -2.006353 0.247864 1.960215 5.498136 -0.281405 -5.908108 -13.125655 -8.354640 -47.527357 -70.180482 69.481550 -4.547820 -2.287052 -33.166008 -6.334063 2.498066 1.210197 20.331266 -6.554513 1.450022 61.832420 -80.554723 -83.200222 1.993010 7.668648 13.505720 -4.323867 -74.085628 -1.360430 -120.363873 80.798602 -117.964392 0.133000 -16.175196 -1.219551 -0.312997 0.960348 -0.143114 -8.878186 -77.851339 26.753691 115.527090 78.385667 112.681373 -15.618551 -22.582793 -0.592213 -0.383198 -1.106390 -0.170889
-49.752746 50.553642 0.567937 162.794496 -6.116497 -0.014708 4.151089 6.454671 0.599099 0.163907 0.274698 -0.021465 0.321904 0.540441 -0.034599 3.655002 6.169521 -0.240977 1.691483 18.196123 0.445422 2.985165 -2.048291 0.252108 1.913462 5.467868 -0.248706 -5.893230 -13.129352 -8.369737 -47.481111 -70.178275 69.427611 -4.535453 -2.288945 -33.153420 -6.349172 2.494414 1.213802 20.324468 -6.569250 1.452443 61.817446 -80.553456 -83.180703 1.986936 7.662062 13.496622 -4.420476 -74.096575 -1.255256 -120.320921 80.802078 -117.932839 0.140986 -16.174403 -1.219007 -0.318979 0.959971 -0.149106 -8.904391 -77.867753 26.803602 115.560328 78.389314 112.707088 -15.565711 -22.592330 -0.600054 -0.404956 -1.101533 -0.169079
-49.751090 50.556633 0.565670 162.799303 -6.101982 -0.017536 4.158066 6.462231 0.605078 0.164992 0.273840 -0.025063 0.323295 0.542931 -0.031417 3.655730 6.152450 -0.247035 1.709979 18.170999 0.442159 2.949456 -2.100458 0.260024 1.882375 5.448789 -0.230935 -5.898930 -13.147689 -8.361612 -47.405233 -70.170939 69.334323 -4.534255 -2.308413 -33.164634 -6.379908 2.488376 1.220547 20.325311 -6.597861 1.450243 61.795331 -80.555754 -83.157864 1.995929 7.669350 13.507031 -4.461809 -74.106297 -1.223652 -120.326074 80.798963 -117.934838 0.138633 -16.179123 -1.225757 -0.311660 0.958510 -0.148312 -8.898038 -77.881157 26.805912 115.579462 78.395629 112.719402 -15.552734 -22.593300 -0.595977 -0.405136 -1.103979 -0.168276
-49.752373 50.560203 0.563682 162.800057 -6.081032 -0.005204 4.163259 6.459608 0.595883 0.171388 0.278754 -0.025371 0.318743 0.540383 -0.031330 3.694507 6.200955 -0.241681 1.669923 18.101347 0.434365 2.937373 -2.135333 0.257784 1.824571 5.375465 -0.231190 -5.918562 -13.168864 -8.336984 -47.308584 -70.162517 69.215444 -4.531749 -2.309483 -33.156866 -6.441457 2.422596 1.224906 20.335512 -6.602678 1.447037 61.815150 -80.559256 -83.182836 1.999048 7.663901 13.512242 -4.444069 -74.122786 -1.250741 -120.321817 80.802041 -117.930194 0.138471 -16.187037 -1.227104 -0.317519 0.965696 -0.148750 -8.815286 -77.899809 26.735810 115.581576 78.404290 112.715132 -15.567090 -22.591895 -0.584085 -0.420662 -1.107922 -0.170504
